<?xml version="1.0" standalone="no"?>
<!DOCTYPE svg PUBLIC "-//W3C//DTD SVG 20010904//EN"
 "http://www.w3.org/TR/2001/REC-SVG-20010904/DTD/svg10.dtd">
<svg version="1.0" xmlns="http://www.w3.org/2000/svg"
 width="256.000000pt" height="256.000000pt" viewBox="0 0 256.000000 256.000000"
 preserveAspectRatio="xMidYMid meet">
<metadata>
Created by potrace 1.11, written by Peter Selinger 2001-2013
</metadata>
<g transform="translate(0.000000,256.000000) scale(0.100000,-0.100000)"
fill="#000000" stroke="none">
<path d="M525 2312 c-33 -11 -51 -25 -69 -54 -16 -25 -18 -87 -18 -880 0 -575
4 -862 11 -880 34 -88 178 -86 213 2 6 14 9 125 9 259 l-2 233 67 -58 c37 -33
81 -72 99 -89 17 -16 76 -70 131 -120 54 -49 112 -103 129 -119 93 -87 170
-152 193 -163 82 -37 162 20 162 114 0 34 -8 45 -88 123 -49 47 -109 102 -133
123 -52 46 -214 194 -315 289 l-71 67 34 30 c107 95 293 261 328 292 22 20 71
64 109 97 38 33 77 73 87 89 26 40 20 88 -17 131 -25 30 -38 36 -75 38 -39 2
-85 -17 -109 -46 -3 -3 -68 -61 -145 -129 -182 -161 -266 -236 -324 -288 -25
-24 -49 -43 -53 -43 -4 0 -7 202 -7 448 1 347 -1 454 -11 473 -15 28 -48 59
-64 59 -6 0 -20 2 -31 4 -11 3 -29 1 -40 -2z"/>
<path d="M1943 1610 c-72 -33 -108 -99 -98 -181 10 -80 69 -135 150 -141 151
-11 240 149 149 269 -48 63 -131 85 -201 53z"/>
<path d="M1920 818 c-51 -27 -82 -78 -82 -133 0 -49 41 -126 79 -150 18 -11
32 -25 33 -32 0 -6 -21 -24 -46 -40 -96 -58 -114 -102 -62 -145 57 -49 203 18
277 126 93 136 86 305 -16 372 -13 8 -49 17 -81 20 -47 5 -65 2 -102 -18z"/>
</g>
</svg>
